<svg xmlns="http://www.w3.org/2000/svg" xmlns:bx="https://boxy-svg.com" width="82px" height="66px" viewbox="0 0 82 66" version="1.1">
  <g id="smb" transform="matrix(1, 0, 0, 1, 6, 6)" fill-rule="nonzero">
    <path d="M57.4369625,-2 L12.5630375,-2 C7.62820119,-2 5.86681923,-1.41548743 4.07025832,-0.45467615 C2.11952904,0.588585286 0.588585286,2.11952904 -0.45467615,4.07025832 C-1.41548743,5.86681923 -2,7.62820119 -2,12.5630375 L-2,41.4369625 C-2,46.3717988 -1.41548743,48.1331808 -0.45467615,49.9297417 C0.588585286,51.880471 2.11952904,53.4114147 4.07025832,54.4546762 C5.86681923,55.4154874 7.62820119,56 12.5630375,56 L57.4369625,56 C62.3717988,56 64.1331808,55.4154874 65.9297417,54.4546762 C67.880471,53.4114147 69.4114147,51.880471 70.4546762,49.9297417 C71.4154874,48.1331808 72,46.3717988 72,41.4369625 L72,12.5630375 C72,7.62820119 71.4154874,5.86681923 70.4546762,4.07025832 C69.4114147,2.11952904 67.880471,0.588585286 65.9297417,-0.45467615 C64.1331808,-1.41548743 62.3717988,-2 57.4369625,-2 Z" id="Rectangle-3" stroke="#FFFFFF" stroke-width="4" style="fill: rgb(0, 0, 0);"></path>
    <path d="M70,27 L70,41.4369625 C70,45.8054044 69.5451545,47.3895069 68.6910498,48.986544 C67.836945,50.583581 66.583581,51.836945 64.986544,52.6910498 C63.3895069,53.5451545 61.8054044,54 57.4369625,54 L12.5630375,54 C8.19459564,54 6.61049308,53.5451545 5.01345604,52.6910498 C3.41641901,51.836945 2.163055,50.583581 1.30895025,48.986544 C0.454845494,47.3895069 0,45.8054044 0,41.4369625 L0,27 L70,27 Z" id="Path" style="fill: rgb(196, 51, 75);"></path>
    <rect x="1.933" y="27.085" width="4.136" style="fill: rgb(216, 216, 216); stroke-width: 4px; stroke: rgb(255, 224, 71);" height="0.084"></rect>
    <rect x="29.01" y="27.043" width="38.99" style="fill: rgb(216, 216, 216); stroke-width: 4px; stroke: rgb(255, 224, 71);" height="0.084"></rect>
    <rect x="25" y="19.219" width="43" style="fill: rgb(216, 216, 216); stroke-width: 4px; stroke: rgb(255, 224, 71); transform-origin: -3.687px 19.261px;" height="0.084"></rect>
    <rect x="25" y="35" width="43" style="fill: rgb(216, 216, 216); stroke-width: 4px; stroke: rgb(255, 224, 71); transform-origin: -3.687px 35.042px;" height="0.084"></rect>
    <rect x="1.958" y="19.2" width="7.9" style="fill: rgb(216, 216, 216); stroke-width: 4px; stroke: rgb(255, 224, 71); transform-origin: -3.312px 19.242px;" height="0.084"></rect>
    <rect x="1.958" y="35" width="7.9" style="fill: rgb(216, 216, 216); stroke-width: 4px; stroke: rgb(255, 224, 71); transform-origin: -3.312px 35.042px;" height="0.084"></rect>
    <circle style="stroke-width: 0px; stroke: rgb(255, 224, 71); fill: rgb(255, 224, 71);" cx="17.293" cy="27.184" r="7.261"></circle>
    <circle style="stroke: rgb(255, 224, 71); fill: rgba(216, 216, 216, 0); stroke-width: 4px;" cx="17.264" cy="27.122" r="9.99"></circle>
    <path style="stroke: rgb(0, 0, 0); stroke-width: 0px; fill: rgb(196, 51, 75);" d="M 9.836 28.999 C 7.262 28.989 24.592 28.938 24.336 28.945 C 24.539 29.263 24.264 29.604 24.143 29.997 C 23.978 30.534 23.515 30.837 23.836 30.946 C 20.568 30.934 10.853 30.923 10.712 30.945"></path>
    <path style="stroke: rgb(0, 0, 0); stroke-width: 0px;" d="M 10.002 25.141 C 7.428 25.15 24.758 25.201 24.502 25.194 C 24.705 24.881 24.43 24.546 24.309 24.159 C 24.144 23.632 23.681 23.334 24.002 23.227 C 20.734 23.238 11.019 23.249 10.878 23.227"></path>
  </g>
</svg>