<svg id="eWOijc7KbeF1" xmlns="http://www.w3.org/2000/svg" xmlns:xlink="http://www.w3.org/1999/xlink" viewBox="0 0 82 66" shape-rendering="geometricPrecision" text-rendering="geometricPrecision" project-id="dd8a4d9accfe4b6a98f3d5861fd03567" export-id="f23f0b9f031142ee800ea2801562e86a" cached="false"><g transform="translate(6 6)"><path d="M57.436963,-2h-44.873925c-4.934837,0-6.696219.584513-8.49278,1.545324-1.950729,1.043261-3.481673,2.574205-4.524934,4.524934C-1.415487,5.866819,-2,7.628201,-2,12.563038v28.873925c0,4.934836.584513,6.696218,1.545324,8.492779c1.043261,1.950729,2.574205,3.481673,4.524934,4.524934C5.866819,55.415487,7.628201,56,12.563038,56h44.873925c4.934836,0,6.696218-.584513,8.492779-1.545324c1.950729-1.043261,3.481673-2.574205,4.524934-4.524934C71.415487,48.133181,72,46.371799,72,41.436963v-28.873925c0-4.934837-.584513-6.696219-1.545324-8.49278-1.043261-1.950729-2.574205-3.481673-4.524934-4.524934C64.133181,-1.415487,62.371799,-2,57.436963,-2Z" stroke="#fff" stroke-width="4"/><path d="M70,27v14.436963c0,4.368441-.454845,5.952544-1.30895,7.549581s-2.107469,2.850401-3.704506,3.704506-3.18114,1.30895-7.549581,1.30895h-44.873925c-4.368442,0-5.952545-.454845-7.549582-1.30895s-2.850401-2.107469-3.704506-3.704506-1.30895-3.18114-1.30895-7.549581L0,27h70Z" fill="#002d4d"/><rect width="4.136" height="0.084" rx="0" ry="0" transform="translate(1.933 27.085)" fill="#d8d8d8" stroke="#ffe047" stroke-width="4"/><rect width="38.99" height="0.084" rx="0" ry="0" transform="translate(29.01 27.043)" fill="#d8d8d8" stroke="#ffe047" stroke-width="4"/><rect width="43" height="0.084" rx="0" ry="0" transform="translate(25 19.219)" fill="#d8d8d8" stroke="#ffe047" stroke-width="4"/><rect width="43" height="0.084" rx="0" ry="0" transform="translate(25 35)" fill="#d8d8d8" stroke="#ffe047" stroke-width="4"/><rect width="7.9" height="0.084" rx="0" ry="0" transform="translate(1.958 19.2)" fill="#d8d8d8" stroke="#ffe047" stroke-width="4"/><rect width="7.9" height="0.084" rx="0" ry="0" transform="translate(1.958 35)" fill="#d8d8d8" stroke="#ffe047" stroke-width="4"/><circle r="9.99" transform="translate(17.264 27.122)" fill="rgba(216,216,216,0)" stroke="#ffe047" stroke-width="4"/><circle r="7.261" transform="translate(17.293 27.184)" fill="#ffe047" stroke="#ffe047" stroke-width="0"/><path d="M9.836,28.999c-2.574-.01,14.756-.061,14.5-.054.203.318-.072.659-.193,1.052-.165.537-.628.84-.307.949-3.268-.012-12.983-.023-13.124-.001" fill="#002344" stroke="#000" stroke-width="0"/><path d="M10.002,25.141c-2.574.009,14.756.06,14.5.053.203-.313-.072-.648-.193-1.035-.165-.527-.628-.825-.307-.932-3.268.011-12.983.022-13.124,0" stroke="#000" stroke-width="0"/><g transform="translate(.18992-.254161)"><ellipse rx="0.283904" ry="0.283904" transform="translate(12.07408 26.254159)" stroke-width="0"/><ellipse rx="0.283904" ry="0.283904" transform="translate(13.07408 26.254159)" stroke-width="0"/><ellipse rx="0.283904" ry="0.283904" transform="translate(13.07408 27.254159)" stroke-width="0"/><ellipse rx="0.283904" ry="0.283904" transform="translate(12.07408 27.254159)" stroke-width="0"/><ellipse rx="0.283904" ry="0.283904" transform="translate(12.07408 28.254159)" stroke-width="0"/><ellipse rx="0.283904" ry="0.283904" transform="translate(13.07408 28.254159)" stroke-width="0"/><ellipse rx="0.283904" ry="0.283904" transform="translate(15.07408 28.254159)" stroke-width="0"/><ellipse rx="0.283904" ry="0.283904" transform="translate(16.07408 28.254159)" stroke-width="0"/><ellipse rx="0.283904" ry="0.283904" transform="translate(15.07408 26.254159)" stroke-width="0"/><ellipse rx="0.283904" ry="0.283904" transform="translate(18.07408 26.254159)" stroke-width="0"/><ellipse rx="0.283904" ry="0.283904" transform="translate(20.07408 26.254159)" stroke-width="0"/><ellipse rx="0.283904" ry="0.283904" transform="translate(20.07408 27.254159)" stroke-width="0"/><ellipse rx="0.283904" ry="0.283904" transform="translate(20.07408 28.254159)" stroke-width="0"/><ellipse rx="0.283904" ry="0.283904" transform="translate(22.07408 28.254159)" stroke-width="0"/><ellipse rx="0.283904" ry="0.283904" transform="translate(22.07408 27.254159)" stroke-width="0"/><ellipse rx="0.283904" ry="0.283904" transform="translate(22.07408 26.254159)" stroke-width="0"/></g></g></svg>
