<svg id="eLaMtJ1b3QR1" xmlns="http://www.w3.org/2000/svg" xmlns:xlink="http://www.w3.org/1999/xlink" viewBox="0 0 875 875" shape-rendering="geometricPrecision" text-rendering="geometricPrecision" project-id="3f9e2a5615844dd492b96e8eebc555db" export-id="41ec4c1f3f374a6092246f855a10d86d" cached="false">
  <defs>
    <linearGradient id="eLaMtJ1b3QR2-fill" x1="0.495094" y1="0.227099" x2="0.495094" y2="0.823276" spreadMethod="pad" gradientUnits="objectBoundingBox" gradientTransform="translate(0 0)">
      <stop id="eLaMtJ1b3QR2-fill-0" offset="0%" stop-color="#4c281a"/>
      <stop id="eLaMtJ1b3QR2-fill-1" offset="100%" stop-color="#5b3d2e"/>
    </linearGradient>
    <linearGradient id="eLaMtJ1b3QR8-fill" x1="0.638019" y1="0.604796" x2="0.638019" y2="0.841172" spreadMethod="pad" gradientUnits="objectBoundingBox" gradientTransform="translate(0 0)">
      <stop id="eLaMtJ1b3QR8-fill-0" offset="0%" stop-color="#70b7d4"/>
      <stop id="eLaMtJ1b3QR8-fill-1" offset="100%" stop-color="#50a3c4"/>
    </linearGradient>
    <linearGradient id="eLaMtJ1b3QR13-fill" x1="0.668337" y1="0.604796" x2="0.668337" y2="0.80594" spreadMethod="pad" gradientUnits="objectBoundingBox" gradientTransform="translate(0 0)">
      <stop id="eLaMtJ1b3QR13-fill-0" offset="0%" stop-color="#70b7d4"/>
      <stop id="eLaMtJ1b3QR13-fill-1" offset="100%" stop-color="#50a3c4"/></linearGradient>
  </defs>
  <path d="M268.861539,606.472711h327.948791c28.904291-22.207994,34.896673-76.305698,16.296948-107.54858c11.833488,19.373282,11.680451,40.434331,9.42245,66.697553l9.275621,31.361447c135.355207-44.532524,102.407637-160.61639,39.491658-230.913129h-481.515307c-67.771747,46.477146-96.199623,191.624747,36.903925,230.913129l8.00783-39.012721c-4.049145-14.744193-.030057-43.982077,5.756127-59.046279-13.910296,41.024414-5.269028,97.477773,28.411957,107.54858Z" fill="url(#eLaMtJ1b3QR2-fill)" stroke="#4c281a" stroke-width="10"/>
  <g transform="translate(0 0.000001)">
    <path d="M465.07402,527.589732l.077573,27.055919l95.007572,29.08152-50.169867,117.731523h-162.876515L295.199556,583.727171l92.874464-27.962964v-28.174475h77Z" transform="translate(.848407-2.589732)" fill="#fff" stroke="#000" stroke-width="15"/>
    <g transform="translate(.000001 0.000001)">
      <path d="M144.111393,823.662871c9.410972-28.0372,41.90625-53.580812,62.611793-43.467929v72.941784l-62.611793-29.473855Z" transform="translate(0 0.000002)" fill="#466499" stroke="#3f5787" stroke-width="15"/>
      <path d="M285.389277,582.174798c-14.911634,1.685142-40.050497,9.242248-49.501027,22.109782-12.575573,9.631698-19.531422,50.982642-22.373413,76.764567c64.198852-5.037664,96.482281-79.398543,71.87444-98.874349Z" transform="translate(-1.194794-1.037359)" fill="#fff" stroke="#000" stroke-width="15"/>
      <path d="M539.81252,565.621683l26.311131,5.618493c-8.963607,61.441414,40.576933,74.661088,73.485162,96.96421c17.51965,19.818927,36.465675,94.516911,57.452049,155.458484-34.269831,25.478046-119.090863,25.598821-157.261335,0" transform="matrix(-1 0 0 1 853.12365-.000001)" fill="url(#eLaMtJ1b3QR8-fill)" stroke="#50a3c4" stroke-width="15"/>
      <path d="M318.062368,890.563455c-23.103335,26.401105-149.61157,29.97008-173.950976,0l-1.4-55.563457c82.963114,5.33434,140.831587-57.762382,144.4-91.35296c36.825509,13.338361,40.054212,63.288195,30.950976,146.916417Z" transform="translate(-.111393 0.000001)" fill="#466499" stroke="#3f5787" stroke-width="15"/>
    </g>
    <g transform="translate(0 0.000001)">
      <path d="M137.128939,822.616248c13.980025-26.209581,53.219672-50.801802,69.594247-42.421306v72.941784l-69.594247-30.520478Z" transform="matrix(-1 0 0 1 851.723186-10.778077)" fill="#466499" stroke="#3f5787" stroke-width="15"/>
      <path d="M285.389277,582.174798c-14.911634,1.685142-40.050497,9.242248-49.501027,22.109782-12.575573,9.631698-19.531422,50.982642-22.373413,76.764567c64.198852-5.037664,96.482281-79.398543,71.87444-98.874349Z" transform="matrix(-1 0 0 1 853.581272-1.037359)" fill="#fff" stroke="#000" stroke-width="15"/>
      <path d="M539.799527,563.987865l29.572971,7.252311c-8.963607,61.441414,37.328086,74.661088,70.236315,96.96421c17.51965,19.818927,36.465675,94.516911,57.452049,155.458484-34.269831,25.478046-119.090863,25.598821-157.261335,0" fill="url(#eLaMtJ1b3QR13-fill)" stroke="#50a3c4" stroke-width="15"/>
      <path d="M321.906112,890.563455c-23.103335,26.401105-153.455314,29.97008-177.79472,0v-66.900586c94.070228,5.968185,125.012645-35.833665,151.74997-80.015831c24.112708,1.323982,52.049035,48.920782,26.04475,146.916417Z" transform="matrix(-1 0 0 1 861.705639 0.000001)" fill="#466499" stroke="#3f5787" stroke-width="15"/>
    </g>
    <path d="M545.794131,641.46268c11.568383,20.571885,26.852666,63.198128,23.122044,77.929852c2.789467,22.533862-12.38123,44.876505-29.116648,60.802412v94.805056c-4.67514,49.066303-229.517604,42.594947-226.488396,0v-94.805056c-16.735418-15.925907-31.906115-38.26855-29.116648-60.802412-3.730622-14.731724,11.553661-57.357967,23.122044-77.929852l-16.430444-70.222504l57.213594-15.414696c43.093725,42.759349,122.464896,40.876373,158.598776,0L561,569" fill="#70b7d4" stroke="#50a3c4" stroke-width="15"/>
  </g>
  <g>
    <ellipse rx="150" ry="147.716742" transform="matrix(1.204204 0 0 1.222838 427.338151 353.399889)" fill="#fff" stroke="#000" stroke-width="15"/>
    <path d="M212.988401,263.038999c75.86252-203.418428,367.092731-190.115591,431.914739,0L443.98767,248.153l-16.649518,35.794333-20.0784-35.794333-194.271351,14.885999Z" fill="#5b3d2e" stroke="#4c281a" stroke-width="10"/>
    <g>
      <path d="M301.284318,307.854265c28.846258-22.47467,44.207834-82.268945,46.754445-118.586594-5.656881-32.678514-28.437906-56.977331-46.754445-44.679761-22.13137,87.435719-96.262881,147.595959-179.82961,112.787868-2.396922,21.010308,27.563881,58.627368,60.73193,67.041741c29.559261,9.469173,89.108101.934776,119.09768-16.563254Z" transform="translate(.000001 0.000001)" fill="#5b3d2e" stroke="#4c281a" stroke-width="10"/>
      <path d="M301.284318,307.854265c28.846258-22.47467,44.207834-82.268945,46.754445-118.586594-5.656881-32.678514-28.437906-56.977331-46.754445-44.679761-22.13137,87.435719-96.262881,147.595959-179.82961,112.787868-2.396922,21.010308,27.563881,58.627368,60.73193,67.041741c29.559261,9.469173,89.108101.934776,119.09768-16.563254Z" transform="matrix(-1 0 0 1 853.483645 0.000001)" fill="#5b3d2e" stroke="#4c281a" stroke-width="10"/>
      <path d="M457.329586,219.389497l-30.551157,64.557835-27.906726-60.4912c-12.345757-33.099776-36.903988-68.646705-50.832941-56.932894-20.532879,117.003188-114.943885,180.786085-210.956707,150.465506c10.08577,28.771482,45.420999,62.3796,69.64113,68.116142c65.00572,19.688778,152.816955-9.958973,170.798683-68.116142c8.066105-22.918108,18.980039-69.564906,21.349835-93.532612L392.4524,263.038999c8.7933-3.22555,19.545821-3.433424,24.045268,0l10.280761,20.908333l10.72157-20.908333c4.788694-3.588509,16.557981-4.411157,24.355788,0l-4.526201-43.649502c2.464636,27.359782,11.579038,75.81068,19.316517,97.090918c19.957561,61.444025,107.439188,83.9882,168.257036,68.624471c31.196041-8.144952,65.831704-43.947546,72.691107-68.624471-75.195574,26.305922-165.510256,14.33015-210.956707-149.957177-11.066081-14.299777-38.00754,21.145004-49.307953,52.866259Z" transform="translate(.000001 0)" fill="#5b3d2e" stroke="#4c281a" stroke-width="10"/>
    </g>
    <g transform="translate(.000001 0.000001)">
      <path d="M403.211229,416.223712c0,0-17.088795-3.407889-21.681733-1.873144c23.208837,28.122532,9.851365,54.493453-16.477383,64.570271-38.46778,6.824077-56.822236-24.792183-46.989744-49.947415-7.483299-1.032798-20.817989,4.010198-26.683462,8.526576C302.570569,407.570005,359.918888,387.089107,406,401.13445c0,0-2.788771,15.089262-2.788771,15.089262Z" transform="translate(0 0.776288)" stroke-width="1.75"/>
      <path d="M403.211229,416.223712c0,0-17.088795-3.407889-21.681733-1.873144c23.208837,28.122532,9.851365,54.493453-16.477383,64.570271-38.46778,6.824077-56.822236-24.792183-46.989744-49.947415-7.483299-1.032798-20.817989,4.010198-26.683462,8.526576C302.570569,407.570005,359.918888,387.089107,406,401.13445c0,0-2.788771,15.089262-2.788771,15.089262Z" transform="matrix(-1 0 0 1 857.223184 0.776288)" stroke-width="1.75"/>
    </g>
  </g>
</svg>