<svg xmlns="http://www.w3.org/2000/svg" xmlns:bx="https://boxy-svg.com" width="82px" height="66px" viewbox="0 0 82 66" version="1.1">
  <title>cwg</title>
  <g id="cwg" stroke="none" stroke-width="1" fill="none" fill-rule="evenodd">
    <g id="Group" transform="translate(6.000000, 6.000000)" fill-rule="nonzero">
      <path d="M57.4369625,-2 L12.5630375,-2 C7.62820119,-2 5.86681923,-1.41548743 4.07025832,-0.45467615 C2.11952904,0.588585286 0.588585286,2.11952904 -0.45467615,4.07025832 C-1.41548743,5.86681923 -2,7.62820119 -2,12.5630375 L-2,41.4369625 C-2,46.3717988 -1.41548743,48.1331808 -0.45467615,49.9297417 C0.588585286,51.880471 2.11952904,53.4114147 4.07025832,54.4546762 C5.86681923,55.4154874 7.62820119,56 12.5630375,56 L57.4369625,56 C62.3717988,56 64.1331808,55.4154874 65.9297417,54.4546762 C67.880471,53.4114147 69.4114147,51.880471 70.4546762,49.9297417 C71.4154874,48.1331808 72,46.3717988 72,41.4369625 L72,12.5630375 C72,7.62820119 71.4154874,5.86681923 70.4546762,4.07025832 C69.4114147,2.11952904 67.880471,0.588585286 65.9297417,-0.45467615 C64.1331808,-1.41548743 62.3717988,-2 57.4369625,-2 Z" id="Rectangle-3" stroke="#FFFFFF" stroke-width="4" fill="#EEEEEE"/>
      <path d="M 17.155 0 L 17.155 54 L 9.122 54 C 5.951 54 4.8 53.545 3.64 52.691 C 2.481 51.837 1.57 50.584 0.951 48.987 C 0.33 47.39 0 45.805 0 41.437 L 0 12.563 C 0 8.195 0.33 6.61 0.951 5.013 C 1.57 3.416 2.481 2.163 3.64 1.309 C 4.8 0.455 5.951 0 9.122 0 L 17.155 0 Z" id="Path" fill="#0094FF" style=""/>
      <path d="M 53.007 0 L 60.964 0 C 64.106 0 65.245 0.455 66.394 1.309 C 67.543 2.163 68.444 3.416 69.059 5.013 C 69.673 6.61 70 8.195 70 12.563 L 70 41.437 C 70 45.805 69.673 47.39 69.059 48.987 C 68.444 50.584 67.543 51.837 66.394 52.691 C 65.245 53.545 64.106 54 60.964 54 L 53.007 54 L 53.007 0 Z" id="Path" fill="#FF6A00" style=""/>
      <ellipse style="stroke: rgb(0, 0, 0); fill: rgba(216, 216, 216, 0); stroke-dasharray: 4, 2;" cx="35.194" cy="28.291" rx="12.906" ry="12.906"/>
      <path d="M 35.815 10.151 L 36.956 13.434 L 40.43 13.504 L 37.661 15.604 L 38.668 18.93 L 35.815 16.945 L 32.962 18.93 L 33.969 15.604 L 31.2 13.504 L 34.674 13.434 Z" bx:shape="star 35.815 15.004 4.853 4.853 0.4 5 1@651e84e6" style="stroke: rgb(0, 0, 0); fill: rgb(178, 0, 255); stroke-width: 0px;"/>
      <path d="M 24.434 31.923 L 25.575 35.206 L 29.049 35.276 L 26.28 37.376 L 27.287 40.702 L 24.434 38.717 L 21.581 40.702 L 22.588 37.376 L 19.819 35.276 L 23.293 35.206 Z" bx:shape="star 24.434 36.776 4.853 4.853 0.4 5 1@42c915aa" style="stroke: rgb(0, 0, 0); stroke-width: 0px; fill: rgb(183, 0, 0);"/>
      <path d="M 46.539 31.887 L 47.68 35.17 L 51.154 35.24 L 48.385 37.34 L 49.392 40.666 L 46.539 38.681 L 43.686 40.666 L 44.693 37.34 L 41.924 35.24 L 45.398 35.17 Z" bx:shape="star 46.539 36.74 4.853 4.853 0.4 5 1@25a29a4d" style="stroke: rgb(0, 0, 0); stroke-width: 0px; fill: rgb(0, 181, 18);"/>
    </g>
  </g>
</svg>